HIERARCHY
ROOT hip
{
OFFSET -0 96.43 -1.50
CHANNELS 6 Xposition Yposition Zposition Zrotation Xrotation Yrotation
JOINT abdomen
{
OFFSET 0 7.23 0
CHANNELS 6 Xposition Yposition Zposition Zrotation Xrotation Yrotation
JOINT chest
{
OFFSET 0 16.54 0
CHANNELS 6 Xposition Yposition Zposition Zrotation Xrotation Yrotation
JOINT neck
{
OFFSET 0 34.21 0
CHANNELS 6 Xposition Yposition Zposition Zrotation Xrotation Yrotation
JOINT head
{
OFFSET 0 6.29 0
CHANNELS 6 Xposition Yposition Zposition Zrotation Xrotation Yrotation
End Site
{
OFFSET 0 21.21 0
}
}
}
JOINT lCollar
{
OFFSET 4.06 26.61 -1.12
CHANNELS 6 Xposition Yposition Zposition Zrotation Xrotation Yrotation
JOINT lShldr
{
OFFSET 14.17 0 0
CHANNELS 6 Xposition Yposition Zposition Zrotation Xrotation Yrotation
JOINT lForeArm
{
OFFSET 26.12 0 0
CHANNELS 6 Xposition Yposition Zposition Zrotation Xrotation Yrotation
JOINT lHand
{
OFFSET 27.71 0 0
CHANNELS 6 Xposition Yposition Zposition Zrotation Xrotation Yrotation
JOINT lThumb1
{
OFFSET 2.29 -0.46 1.83
CHANNELS 6 Xposition Yposition Zposition Zrotation Xrotation Yrotation
JOINT lThumb2
{
OFFSET 5.29 0 0
CHANNELS 6 Xposition Yposition Zposition Zrotation Xrotation Yrotation
JOINT lThumb3
{
OFFSET 3.01 0 0
CHANNELS 6 Xposition Yposition Zposition Zrotation Xrotation Yrotation
End Site
{
OFFSET 2.62 0 0
}
}
}
}
JOINT lIndex1
{
OFFSET 9.37 0.29 2.59
CHANNELS 6 Xposition Yposition Zposition Zrotation Xrotation Yrotation
JOINT lIndex2
{
OFFSET 4.34 0 0
CHANNELS 6 Xposition Yposition Zposition Zrotation Xrotation Yrotation
JOINT lIndex3
{
OFFSET 2.16 0 0
CHANNELS 6 Xposition Yposition Zposition Zrotation Xrotation Yrotation
End Site
{
OFFSET 2.20 0 0
}
}
}
}
JOINT lMid1
{
OFFSET 9.47 0.83 0.29
CHANNELS 6 Xposition Yposition Zposition Zrotation Xrotation Yrotation
JOINT lMid2
{
OFFSET 4.77 0 0
CHANNELS 6 Xposition Yposition Zposition Zrotation Xrotation Yrotation
JOINT lMid3
{
OFFSET 2.87 0 0
CHANNELS 6 Xposition Yposition Zposition Zrotation Xrotation Yrotation
End Site
{
OFFSET 2.09 0 0
}
}
}
}
JOINT lRing1
{
OFFSET 8.65 1.01 -1.70
CHANNELS 6 Xposition Yposition Zposition Zrotation Xrotation Yrotation
JOINT lRing2
{
OFFSET 4.54 0 0
CHANNELS 6 Xposition Yposition Zposition Zrotation Xrotation Yrotation
JOINT lRing3
{
OFFSET 2.50 0 0
CHANNELS 6 Xposition Yposition Zposition Zrotation Xrotation Yrotation
End Site
{
OFFSET 2.20 0 0
}
}
}
}
JOINT lPinky1
{
OFFSET 7.69 0.66 -3.90
CHANNELS 6 Xposition Yposition Zposition Zrotation Xrotation Yrotation
JOINT lPinky2
{
OFFSET 3.21 0 0
CHANNELS 6 Xposition Yposition Zposition Zrotation Xrotation Yrotation
JOINT lPinky3
{
OFFSET 1.92 0 0
CHANNELS 6 Xposition Yposition Zposition Zrotation Xrotation Yrotation
End Site
{
OFFSET 1.78 0 0
}
}
}
}
}
}
}
}
JOINT rCollar
{
OFFSET -4.06 26.61 -1.12
CHANNELS 6 Xposition Yposition Zposition Zrotation Xrotation Yrotation
JOINT rShldr
{
OFFSET -14.17 0 0
CHANNELS 6 Xposition Yposition Zposition Zrotation Xrotation Yrotation
JOINT rForeArm
{
OFFSET -26.12 0 0
CHANNELS 6 Xposition Yposition Zposition Zrotation Xrotation Yrotation
JOINT rHand
{
OFFSET -27.71 0 0
CHANNELS 6 Xposition Yposition Zposition Zrotation Xrotation Yrotation
JOINT rThumb1
{
OFFSET -2.29 -0.46 1.83
CHANNELS 6 Xposition Yposition Zposition Zrotation Xrotation Yrotation
JOINT rThumb2
{
OFFSET -5.29 0 0
CHANNELS 6 Xposition Yposition Zposition Zrotation Xrotation Yrotation
JOINT rThumb3
{
OFFSET -3.01 0 0
CHANNELS 6 Xposition Yposition Zposition Zrotation Xrotation Yrotation
End Site
{
OFFSET -2.62 0 0
}
}
}
}
JOINT rIndex1
{
OFFSET -9.37 0.29 2.59
CHANNELS 6 Xposition Yposition Zposition Zrotation Xrotation Yrotation
JOINT rIndex2
{
OFFSET -4.34 0 0
CHANNELS 6 Xposition Yposition Zposition Zrotation Xrotation Yrotation
JOINT rIndex3
{
OFFSET -2.16 0 0
CHANNELS 6 Xposition Yposition Zposition Zrotation Xrotation Yrotation
End Site
{
OFFSET -2.20 0 0
}
}
}
}
JOINT rMid1
{
OFFSET -9.47 0.83 0.29
CHANNELS 6 Xposition Yposition Zposition Zrotation Xrotation Yrotation
JOINT rMid2
{
OFFSET -4.77 0 0
CHANNELS 6 Xposition Yposition Zposition Zrotation Xrotation Yrotation
JOINT rMid3
{
OFFSET -2.87 0 0
CHANNELS 6 Xposition Yposition Zposition Zrotation Xrotation Yrotation
End Site
{
OFFSET -2.09 0 0
}
}
}
}
JOINT rRing1
{
OFFSET -8.65 1.01 -1.70
CHANNELS 6 Xposition Yposition Zposition Zrotation Xrotation Yrotation
JOINT rRing2
{
OFFSET -4.54 0 0
CHANNELS 6 Xposition Yposition Zposition Zrotation Xrotation Yrotation
JOINT rRing3
{
OFFSET -2.50 0 0
CHANNELS 6 Xposition Yposition Zposition Zrotation Xrotation Yrotation
End Site
{
OFFSET -2.20 0 0
}
}
}
}
JOINT rPinky1
{
OFFSET -7.69 0.66 -3.90
CHANNELS 6 Xposition Yposition Zposition Zrotation Xrotation Yrotation
JOINT rPinky2
{
OFFSET -3.21 0 0
CHANNELS 6 Xposition Yposition Zposition Zrotation Xrotation Yrotation
JOINT rPinky3
{
OFFSET -1.92 0 0
CHANNELS 6 Xposition Yposition Zposition Zrotation Xrotation Yrotation
End Site
{
OFFSET -1.78 0 0
}
}
}
}
}
}
}
}
}
}
JOINT lThigh
{
OFFSET 8.73 -0 0
CHANNELS 6 Xposition Yposition Zposition Zrotation Xrotation Yrotation
JOINT lShin
{
OFFSET 0 -46.66 0
CHANNELS 6 Xposition Yposition Zposition Zrotation Xrotation Yrotation
JOINT lFoot
{
OFFSET 0 -40.14 0
CHANNELS 6 Xposition Yposition Zposition Zrotation Xrotation Yrotation
JOINT lToes
{
OFFSET 0 -8.88 14.22
CHANNELS 6 Xposition Yposition Zposition Zrotation Xrotation Yrotation
End Site
{
OFFSET 0 0 6.29
}
}
}
}
}
JOINT rThigh
{
OFFSET -8.73 0 -0
CHANNELS 6 Xposition Yposition Zposition Zrotation Xrotation Yrotation
JOINT rShin
{
OFFSET 0 -46.66 0
CHANNELS 6 Xposition Yposition Zposition Zrotation Xrotation Yrotation
JOINT rFoot
{
OFFSET 0 -40.14 0
CHANNELS 6 Xposition Yposition Zposition Zrotation Xrotation Yrotation
JOINT rToes
{
OFFSET 0 -8.88 14.22
CHANNELS 6 Xposition Yposition Zposition Zrotation Xrotation Yrotation
End Site
{
OFFSET 0 0 6.29
}
}
}
}
}
}
MOTION
Frames: 6
Frame Time: 0.03
-7.75 96.99 5.56 0.42 -8.35 3.17 0 7.23 0 -0.64 0.03 -1.58 0 16.54 0 -1.30 1.94 -3.08 0 34.21 0 3.71 25.89 -0.88 0 6.29 0 0.40 -22.22 -14.57 4.06 26.61 -1.12 2.35 -2.88 2.50 14.17 0 0 -84.55 19.51 22.15 26.12 0 0 -0.41 0.10 -29.14 27.71 0 0 -1.02 -28.75 10.73 2.29 -0.46 1.83 52.54 86.37 -64.37 5.29 0 0 -13.65 2.43 4.23 3.01 0 0 38.54 5.09 3.63 9.37 0.29 2.59 -18.81 -2.48 4.85 4.34 0 0 -21.03 -0.51 4.27 2.16 0 0 -23.20 -0.93 4.14 9.47 0.83 0.29 -17.89 -5.21 5.05 4.77 0 0 -42.30 -3.81 10.05 2.87 0 0 -30.87 -1.99 9.02 8.65 1.01 -1.70 -26.32 0.72 6.25 4.54 0 0 -47.00 -2.51 5.78 2.50 0 0 -34.31 -1.32 5.38 7.69 0.66 -3.90 -23.75 -10.39 6.17 3.21 0 0 -45.77 -6.11 14.42 1.92 0 0 -35.39 -3.65 13.14 -4.06 26.61 -1.12 9.17 -2.84 0.15 -14.17 0 0 74.45 4.59 -13.26 -26.12 0 0 0.25 0.03 17.11 -27.71 0 0 -16.35 -7.81 0.79 -2.29 -0.46 1.83 -80.73 75.77 111.05 -5.29 0 0 15.30 2.21 -5.46 -3.01 0 0 -10.61 3.29 -16.01 -9.37 0.29 2.59 58.87 -7.07 -8.64 -4.34 0 0 78.82 -8.38 -10.53 -2.16 0 0 81.02 -8.82 -9.93 -9.47 0.83 0.29 58.44 -9.84 -8.71 -4.77 0 0 77.73 -10.73 -13.41 -2.87 0 0 73.86 -9.75 -14.41 -8.65 1.01 -1.70 59.46 -3.21 -8.59 -4.54 0 0 79.84 -5.51 -6.59 -2.50 0 0 73.10 -4.70 -7.19 -7.69 0.66 -3.90 57.72 -14.40 -8.86 -3.21 0 0 75.42 -14.20 -18.30 -1.92 0 0 71.13 -12.77 -19.30 8.73 -0 0 5.33 7.10 20.03 0 -46.66 0 3.67 12.68 -8.47 0 -40.14 0 -2.82 -7.91 4.85 0 -8.88 14.22 0 0 0 -8.73 0 -0 -2.98 6.26 -20.40 0 -46.66 0 1.61 14.15 1.08 0 -40.14 0 1.68 -11.17 -6.89 0 -8.88 14.22 0 0 0 
-7.68 96.99 5.57 0.48 -8.34 3.40 0 7.23 0 -0.61 0.03 -1.58 0 16.54 0 -1.23 1.94 -3.08 0 34.21 0 3.72 25.89 -0.88 0 6.29 0 0.45 -22.23 -14.54 4.06 26.61 -1.12 2.36 -2.88 2.53 14.17 0 0 -84.64 19.43 22.19 26.12 0 0 -0.41 0.10 -28.77 27.71 0 0 -1.16 -28.70 10.51 2.29 -0.46 1.83 55.66 86.11 -67.44 5.29 0 0 -13.65 2.43 4.23 3.01 0 0 38.54 5.09 3.63 9.37 0.29 2.59 -18.76 -2.48 4.84 4.34 0 0 -20.98 -0.51 4.26 2.16 0 0 -23.14 -0.92 4.13 9.47 0.83 0.29 -17.86 -5.21 5.04 4.77 0 0 -42.28 -3.80 10.05 2.87 0 0 -30.86 -1.99 9.01 8.65 1.01 -1.70 -26.30 0.72 6.25 4.54 0 0 -46.99 -2.51 5.78 2.50 0 0 -34.31 -1.32 5.38 7.69 0.66 -3.90 -23.81 -10.40 6.18 3.21 0 0 -45.84 -6.13 14.44 1.92 0 0 -35.44 -3.66 13.16 -4.06 26.61 -1.12 9.20 -2.84 0.14 -14.17 0 0 74.28 4.60 -12.99 -26.12 0 0 0.24 0.03 16.67 -27.71 0 0 -16.26 -7.70 1.08 -2.29 -0.46 1.83 -80.73 75.77 111.05 -5.29 0 0 15.30 2.21 -5.46 -3.01 0 0 -10.61 3.29 -16.01 -9.37 0.29 2.59 58.87 -7.07 -8.64 -4.34 0 0 78.82 -8.38 -10.53 -2.16 0 0 81.02 -8.82 -9.93 -9.47 0.83 0.29 58.44 -9.84 -8.71 -4.77 0 0 77.73 -10.73 -13.41 -2.87 0 0 73.86 -9.75 -14.41 -8.65 1.01 -1.70 59.46 -3.21 -8.59 -4.54 0 0 79.84 -5.51 -6.59 -2.50 0 0 73.10 -4.70 -7.19 -7.69 0.66 -3.90 57.72 -14.40 -8.86 -3.21 0 0 75.42 -14.20 -18.30 -1.92 0 0 71.13 -12.77 -19.30 8.73 -0 0 5.25 7.03 20.11 0 -46.66 0 3.76 12.71 -8.79 0 -40.14 0 -2.76 -7.90 4.85 0 -8.88 14.22 0 0 -0 -8.73 0 -0 -3.06 6.27 -20.29 0 -46.66 0 1.65 14.19 0.80 0 -40.14 0 1.82 -11.16 -6.89 0 -8.88 14.22 0 0 0 
-7.60 96.99 5.55 0.54 -8.29 3.59 0 7.23 0 -0.57 0.02 -1.58 0 16.54 0 -1.16 1.93 -3.09 0 34.21 0 3.73 25.89 -0.88 0 6.29 0 0.51 -22.24 -14.54 4.06 26.61 -1.12 2.38 -2.88 2.56 14.17 0 0 -84.73 19.36 22.17 26.12 0 0 -0.40 0.10 -28.42 27.71 0 0 -1.40 -28.68 10.24 2.29 -0.46 1.83 58.49 85.83 -70.23 5.29 0 0 -13.65 2.43 4.23 3.01 0 0 38.54 5.09 3.63 9.37 0.29 2.59 -18.67 -2.47 4.83 4.34 0 0 -20.89 -0.50 4.25 2.16 0 0 -23.05 -0.92 4.12 9.47 0.83 0.29 -17.82 -5.21 5.04 4.77 0 0 -42.24 -3.79 10.04 2.87 0 0 -30.83 -1.99 9.01 8.65 1.01 -1.70 -26.27 0.72 6.24 4.54 0 0 -46.96 -2.51 5.78 2.50 0 0 -34.30 -1.32 5.38 7.69 0.66 -3.90 -23.87 -10.40 6.19 3.21 0 0 -45.89 -6.14 14.45 1.92 0 0 -35.49 -3.67 13.17 -4.06 26.61 -1.12 9.21 -2.84 0.11 -14.17 0 0 74.13 4.63 -12.67 -26.12 0 0 0.24 0.03 16.20 -27.71 0 0 -16.19 -7.59 1.27 -2.29 -0.46 1.83 -80.73 75.77 111.05 -5.29 0 0 15.30 2.21 -5.46 -3.01 0 0 -10.61 3.29 -16.01 -9.37 0.29 2.59 58.87 -7.07 -8.64 -4.34 0 0 78.82 -8.38 -10.53 -2.16 0 0 81.02 -8.82 -9.93 -9.47 0.83 0.29 58.44 -9.84 -8.71 -4.77 0 0 77.73 -10.73 -13.41 -2.87 0 0 73.86 -9.75 -14.41 -8.65 1.01 -1.70 59.46 -3.21 -8.59 -4.54 0 0 79.84 -5.51 -6.59 -2.50 0 0 73.10 -4.70 -7.19 -7.69 0.66 -3.90 57.72 -14.40 -8.86 -3.21 0 0 75.42 -14.20 -18.30 -1.92 0 0 71.13 -12.77 -19.30 8.73 -0 0 5.16 6.91 20.19 0 -46.66 0 3.84 12.76 -9.07 0 -40.14 0 -2.69 -7.92 4.85 0 -8.88 14.22 0 0 0 -8.73 0 -0 -3.15 6.23 -20.18 0 -46.66 0 1.67 14.23 0.54 0 -40.14 0 1.97 -11.16 -6.89 0 -8.88 14.22 0 0 -0 
-7.54 96.99 5.52 0.58 -8.23 3.77 0 7.23 0 -0.54 0.02 -1.58 0 16.54 0 -1.09 1.93 -3.09 0 34.21 0 3.74 25.89 -0.88 0 6.29 0 0.60 -22.25 -14.52 4.06 26.61 -1.12 2.37 -2.88 2.57 14.17 0 0 -84.79 19.34 22.13 26.12 0 0 -0.40 0.10 -28.17 27.71 0 0 -1.60 -28.72 10.05 2.29 -0.46 1.83 61.07 85.53 -72.78 5.29 0 0 -13.65 2.43 4.23 3.01 0 0 38.54 5.09 3.63 9.37 0.29 2.59 -18.55 -2.46 4.81 4.34 0 0 -20.77 -0.49 4.22 2.16 0 0 -22.94 -0.91 4.09 9.47 0.83 0.29 -17.76 -5.20 5.03 4.77 0 0 -42.18 -3.78 10.03 2.87 0 0 -30.78 -1.98 9.00 8.65 1.01 -1.70 -26.22 0.73 6.24 4.54 0 0 -46.91 -2.50 5.77 2.50 0 0 -34.25 -1.31 5.37 7.69 0.66 -3.90 -23.91 -10.41 6.20 3.21 0 0 -45.93 -6.15 14.46 1.92 0 0 -35.54 -3.68 13.18 -4.06 26.61 -1.12 9.23 -2.85 0.08 -14.17 0 0 73.99 4.66 -12.34 -26.12 0 0 0.23 0.03 15.68 -27.71 0 0 -16.14 -7.47 1.44 -2.29 -0.46 1.83 -80.73 75.77 111.05 -5.29 0 0 15.30 2.21 -5.46 -3.01 0 0 -10.61 3.29 -16.01 -9.37 0.29 2.59 58.87 -7.07 -8.64 -4.34 0 0 78.82 -8.38 -10.53 -2.16 0 0 81.02 -8.82 -9.93 -9.47 0.83 0.29 58.44 -9.84 -8.71 -4.77 0 0 77.73 -10.73 -13.41 -2.87 0 0 73.86 -9.75 -14.41 -8.65 1.01 -1.70 59.46 -3.21 -8.59 -4.54 0 0 79.84 -5.51 -6.59 -2.50 0 0 73.10 -4.70 -7.19 -7.69 0.66 -3.90 57.72 -14.40 -8.86 -3.21 0 0 75.42 -14.20 -18.30 -1.92 0 0 71.13 -12.77 -19.30 8.73 -0 0 5.10 6.76 20.27 0 -46.66 0 3.91 12.84 -9.35 0 -40.14 0 -2.62 -7.96 4.85 0 -8.88 14.22 0 0 0 -8.73 0 -0 -3.22 6.14 -20.06 0 -46.66 0 1.70 14.29 0.28 0 -40.14 0 2.12 -11.18 -6.89 0 -8.88 14.22 0 0 0 
-7.47 96.99 5.48 0.63 -8.15 3.91 0 7.23 0 -0.50 0.03 -1.57 0 16.54 0 -1.02 1.94 -3.09 0 34.21 0 3.76 25.89 -0.88 0 6.29 0 0.70 -22.26 -14.44 4.06 26.61 -1.12 2.35 -2.89 2.59 14.17 0 0 -84.84 19.36 22.07 26.12 0 0 -0.40 0.10 -28.02 27.71 0 0 -1.70 -28.76 9.95 2.29 -0.46 1.83 63.42 85.22 -75.12 5.29 0 0 -13.65 2.43 4.23 3.01 0 0 38.54 5.09 3.63 9.37 0.29 2.59 -18.40 -2.45 4.78 4.34 0 0 -20.62 -0.48 4.19 2.16 0 0 -22.78 -0.90 4.07 9.47 0.83 0.29 -17.69 -5.20 5.01 4.77 0 0 -42.10 -3.77 10.02 2.87 0 0 -30.69 -1.97 8.98 8.65 1.01 -1.70 -26.16 0.74 6.23 4.54 0 0 -46.84 -2.50 5.77 2.50 0 0 -34.18 -1.31 5.37 7.69 0.66 -3.90 -23.94 -10.41 6.20 3.21 0 0 -45.96 -6.16 14.47 1.92 0 0 -35.58 -3.69 13.19 -4.06 26.61 -1.12 9.24 -2.86 0.08 -14.17 0 0 73.89 4.70 -12.00 -26.12 0 0 0.22 0.02 15.11 -27.71 0 0 -16.13 -7.39 1.65 -2.29 -0.46 1.83 -80.73 75.77 111.05 -5.29 0 0 15.30 2.21 -5.46 -3.01 0 0 -10.61 3.29 -16.01 -9.37 0.29 2.59 58.87 -7.07 -8.64 -4.34 0 0 78.82 -8.38 -10.53 -2.16 0 0 81.02 -8.82 -9.93 -9.47 0.83 0.29 58.44 -9.84 -8.71 -4.77 0 0 77.73 -10.73 -13.41 -2.87 0 0 73.86 -9.75 -14.41 -8.65 1.01 -1.70 59.46 -3.21 -8.59 -4.54 0 0 79.84 -5.51 -6.59 -2.50 0 0 73.10 -4.70 -7.19 -7.69 0.66 -3.90 57.72 -14.40 -8.86 -3.21 0 0 75.42 -14.20 -18.30 -1.92 0 0 71.13 -12.77 -19.30 8.73 -0 0 5.03 6.59 20.35 0 -46.66 0 3.97 12.93 -9.58 0 -40.14 0 -2.55 -8.00 4.85 0 -8.88 14.22 0 0 -0 -8.73 0 -0 -3.29 6.04 -19.94 0 -46.66 0 1.72 14.34 0.05 0 -40.14 0 2.25 -11.21 -6.90 0 -8.88 14.22 0 0 0 
-7.42 96.99 5.42 0.68 -8.07 4.01 0 7.23 0 -0.47 0.04 -1.57 0 16.54 0 -0.95 1.96 -3.08 0 34.21 0 3.78 25.88 -0.87 0 6.29 0 0.78 -22.27 -14.37 4.06 26.61 -1.12 2.34 -2.90 2.60 14.17 0 0 -84.92 19.43 21.99 26.12 0 0 -0.40 0.10 -27.96 27.71 0 0 -1.66 -28.81 9.88 2.29 -0.46 1.83 65.58 84.89 -77.27 5.29 0 0 -13.65 2.43 4.23 3.01 0 0 38.54 5.09 3.63 9.37 0.29 2.59 -18.20 -2.43 4.75 4.34 0 0 -20.42 -0.47 4.16 2.16 0 0 -22.59 -0.88 4.03 9.47 0.83 0.29 -17.59 -5.19 5.00 4.77 0 0 -42.01 -3.75 10 2.87 0 0 -30.58 -1.95 8.95 8.65 1.01 -1.70 -26.07 0.75 6.21 4.54 0 0 -46.75 -2.49 5.76 2.50 0 0 -34.08 -1.30 5.35 7.69 0.66 -3.90 -23.95 -10.41 6.20 3.21 0 0 -45.97 -6.16 14.47 1.92 0 0 -35.60 -3.70 13.20 -4.06 26.61 -1.12 9.26 -2.87 0.09 -14.17 0 0 73.81 4.71 -11.62 -26.12 0 0 0.21 0.02 14.47 -27.71 0 0 -16.12 -7.39 1.96 -2.29 -0.46 1.83 -80.73 75.77 111.05 -5.29 0 0 15.30 2.21 -5.46 -3.01 0 0 -10.61 3.29 -16.01 -9.37 0.29 2.59 58.87 -7.07 -8.64 -4.34 0 0 78.82 -8.38 -10.53 -2.16 0 0 81.02 -8.82 -9.93 -9.47 0.83 0.29 58.44 -9.84 -8.71 -4.77 0 0 77.73 -10.73 -13.41 -2.87 0 0 73.86 -9.75 -14.41 -8.65 1.01 -1.70 59.46 -3.21 -8.59 -4.54 0 0 79.84 -5.51 -6.59 -2.50 0 0 73.10 -4.70 -7.19 -7.69 0.66 -3.90 57.72 -14.40 -8.86 -3.21 0 0 75.42 -14.20 -18.30 -1.92 0 0 71.13 -12.77 -19.30 8.73 -0 0 4.96 6.42 20.42 0 -46.66 0 4.01 13.00 -9.74 0 -40.14 0 -2.48 -8.00 4.85 0 -8.88 14.22 0 0 0 -8.73 0 -0 -3.38 5.91 -19.83 0 -46.66 0 1.73 14.39 -0.11 0 -40.14 0 2.37 -11.23 -6.90 0 -8.88 14.22 0 0 0 
